<?xml version="1.0" encoding="utf-8"?>
<!-- Generator: Adobe Illustrator 16.0.4, SVG Export Plug-In . SVG Version: 6.00 Build 0)  -->
<!DOCTYPE svg PUBLIC "-//W3C//DTD SVG 1.1//EN" "http://www.w3.org/Graphics/SVG/1.1/DTD/svg11.dtd">
<svg version="1.1" id="Ebene_1" xmlns="http://www.w3.org/2000/svg" xmlns:xlink="http://www.w3.org/1999/xlink" x="0px" y="0px"
	 width="300px" height="300px" viewBox="0 0 300 300" enable-background="new 0 0 300 300" xml:space="preserve">
<g>
	<g>
		<path d="M291.092,194.014c-9.114-62.829-13.154-89.842-20.508-143.229c-0.803-5.829-3.674-8.464-10.05-6.701
			c-0.708,0.196-2.622,0.725-5.463,1.51c1.182,1.451,2.043,2.74,3.105,3.997c1.109,1.312,2.08,2.968,2.426,5.477
			c6.745,48.967,10.451,73.744,18.81,131.373c0.704,4.853-2.442,8.906-6.437,10.132c-3.635,1.115-64.667,14.534-94.204,22.662
			c-7.885,2.172-2.625,5.177-9.865,6.255c-12.294,1.834-26.876,1.773-39.017-0.185c-7.285-1.174-1.495-4.096-8.674-6.071
			c-29.538-8.127-90.574-21.546-94.21-22.662c-3.995-1.226-7.143-5.279-6.439-10.132c8.359-57.628,12.064-82.405,18.809-131.373
			c0.307-2.226,1.046-3.855,2.001-5.074c1.513-1.932,2.316-3.002,3.503-4.406c-2.828-0.781-4.733-1.309-5.438-1.503
			c-6.376-1.763-9.246,0.873-10.049,6.701c-7.354,53.386-11.393,80.4-20.507,143.229c-0.767,5.29,2.665,9.709,7.02,11.046
			c3.963,1.216,70.51,15.846,102.712,24.708c7.306,2.009,1.876,6.668,8.958,7.843c14.119,2.345,31.367,2.312,45.399-0.095
			c7.282-1.249,2.259-6.061,8.394-7.749c32.203-8.861,98.742-23.492,102.706-24.708C288.43,203.724,291.859,199.304,291.092,194.014
			z"/>
	</g>
	<g>
		<path d="M248.155,48.017c0.051,0,0.096,0.001,0.133,0.003c0.117,0.231,0.331,0.774,0.48,1.856
			c5.013,36.398,8.293,58.936,13.257,93.052c1.32,9.071,2.764,18.996,4.398,30.257c0.288,1.992-1.047,3.489-2.511,3.939
			c-0.989,0.296-8.037,1.917-16.198,3.792c-19.8,4.552-52.938,12.169-72.061,17.432c-11.858,3.263-20.506,5.917-25.738,10.233
			c-5.405-4.396-14.14-7.084-25.583-10.233c-19.123-5.262-52.265-12.88-72.066-17.432c-8.16-1.875-15.208-3.496-16.194-3.791
			c-1.469-0.452-2.806-1.95-2.517-3.94c1.625-11.203,3.063-21.083,4.377-30.115c4.972-34.172,8.257-56.747,13.278-93.195
			c0.149-1.081,0.363-1.624,0.479-1.855c0.037-0.002,0.081-0.003,0.132-0.003c0.298,0,0.83,0.049,1.671,0.282l68.151,18.839
			c20.198,5.583,23.798,7.773,28.609,18.422c3.554-12.104,10.194-13.476,28.087-18.422l65.104-17.999l3.038-0.84
			C247.326,48.066,247.857,48.017,248.155,48.017 M248.155,42.954c-0.886,0-1.889,0.152-3.021,0.464
			c-3.501,0.968-41.258,11.408-68.142,18.839c-15.254,4.216-23.619,7.324-26.995,13.372c-3.797-6.048-11.75-9.156-27.004-13.372
			c-26.884-7.431-64.65-17.871-68.151-18.839c-1.131-0.312-2.135-0.464-3.021-0.464c-3.41,0-5.08,2.25-5.628,6.232
			c-6.33,45.949-9.806,69.198-17.65,123.274c-0.66,4.553,2.294,8.357,6.043,9.507c3.411,1.046,60.686,13.638,88.402,21.265
			c15.31,4.213,24.195,7.286,27.009,13.334c2.532-6.048,11.689-9.121,27-13.334c27.716-7.626,84.986-20.218,88.397-21.265
			c3.749-1.15,6.7-4.954,6.04-9.507c-7.844-54.076-11.321-77.325-17.651-123.274C253.236,45.204,251.565,42.954,248.155,42.954
			L248.155,42.954z"/>
	</g>
	<path d="M178.164,210.481c-8.689,2.383-16.164,4.412-20.164,6.791v60.056l16-10.971l16,10.971v-69.964
		C185,208.46,181.706,209.51,178.164,210.481z"/>
	<g>
		<g>
			<g>
				<path d="M42.374,162.603c6.619,1.562,20.874,4.844,36.283,8.513c15.41,3.667,31.975,7.721,43.213,10.828
					c6.464,1.787,11.401,3.357,15.355,5.018l0.114-9.058c-3.72-1.359-8.08-2.673-13.221-4.094
					c-12.096-3.344-29.7-7.718-45.572-11.564c-15.872-3.847-30.014-7.166-35.187-8.398L42.374,162.603z"/>
			</g>
			<g>
				<path d="M175.868,173.809c-4.528,1.252-8.668,2.45-12.367,3.745l0.129,9.004c3.815-1.487,8.479-2.954,14.487-4.614
					c10.974-3.034,27.162-6.991,42.344-10.599c15.183-3.61,29.361-6.87,36.318-8.514l-0.985-8.756
					c-5.788,1.379-19.895,4.689-35.492,8.466C204.704,166.317,187.616,170.561,175.868,173.809z"/>
			</g>
		</g>
		<g>
			<path d="M48.49,123.824l-0.884,8.188c3.945,0.979,10.386,2.544,18.069,4.424c4.908,1.2,10.345,2.535,15.97,3.928
				c3.746,0.928,7.575,1.883,11.388,2.842c10.063,2.525,20.003,5.08,27.958,7.259c0.499,0.137,0.988,0.272,1.466,0.405
				c6.126,1.704,10.764,3.188,14.493,4.729l0.103-8.259c-0.021-0.007-0.04-0.202-0.062-0.209c-3.562-1.291-7.759-2.562-12.947-3.996
				c-8.063-2.229-30.656-8.147-41.238-10.711C72.223,129.86,51.938,124.646,48.49,123.824z"/>
			<path d="M216.283,132.66c-10.399,2.518-32.509,8.311-40.34,10.476c-4.237,1.171-8.274,2.334-11.915,3.59
				c-0.082,0.027-0.162,0.213-0.243,0.241l0.119,8.24c3.583-1.38,7.948-2.757,13.542-4.314c0.567-0.158,1.148-0.318,1.742-0.481
				c7.627-2.085,17.036-4.502,26.639-6.911c3.889-0.978,7.807-1.955,11.654-2.908c5.145-1.273,10.159-2.503,14.794-3.638
				c8.077-1.975,14.954-3.645,19.271-4.716l-0.885-8.187C246.803,124.973,226.681,130.142,216.283,132.66z"/>
		</g>
		<g>
			<path d="M53.621,93.803l-0.784,7.619c3.861,1.005,9.879,2.549,17.014,4.382c4.531,1.164,9.556,2.457,14.782,3.81
				c3.505,0.908,7.102,1.844,10.702,2.785c9.228,2.407,18.465,4.852,26.208,6.982c0.512,0.141,1.012,0.28,1.502,0.417
				c5.787,1.62,10.125,3.019,13.628,4.44l0.097-7.739c-0.043-0.016-0.085-0.124-0.129-0.14c-3.405-1.223-7.439-2.452-12.673-3.897
				c-4.032-1.115-31.614-8.576-36.905-9.858C81.773,101.323,55.345,94.214,53.621,93.803z"/>
			<path d="M212.265,102.78c-5.2,1.259-32.331,8.6-36.246,9.683c-3.945,1.09-7.881,2.217-11.462,3.435
				c-0.163,0.055-0.325,0.189-0.486,0.245l0.11,7.714c3.353-1.271,7.419-2.56,12.598-4.012c0.574-0.161,1.161-0.325,1.763-0.49
				c7.425-2.041,16.145-4.349,24.946-6.644c3.689-0.964,7.39-1.927,11.017-2.867c4.776-1.235,9.422-2.431,13.743-3.542
				c7.469-1.919,13.865-3.557,18.069-4.652l-0.785-7.619C243.601,94.491,217.463,101.521,212.265,102.78z"/>
		</g>
		<g>
			<path d="M122.095,88.297c6.238,1.724,10.723,3.159,14.303,4.581l0.09-7.218c-3.288-1.177-7.208-2.382-12.595-3.87l-32.57-9.004
				l-32.57-9.003l-0.684,7.049c3.775,1.033,9.373,2.552,15.958,4.34c6.965,1.891,15.217,4.131,23.61,6.42
				C106.031,83.88,114.565,86.215,122.095,88.297z"/>
			<path d="M164.354,85.318l0.103,7.188c3.5-1.305,7.813-2.656,13.435-4.21c7.224-1.997,15.254-4.195,23.254-6.376
				s15.969-4.345,23.07-6.272c6.863-1.864,12.777-3.469,16.868-4.589l-0.684-7.049l-32.153,8.89l-32.153,8.89
				C172.185,82.87,168.073,84.042,164.354,85.318z"/>
		</g>
	</g>
</g>
</svg>
